<?xml version="1.0" encoding="utf-8"?>
<!-- Svg Vector Icons : http://www.onlinewebfonts.com/icon -->
<!DOCTYPE svg PUBLIC "-//W3C//DTD SVG 1.1//EN" "http://www.w3.org/Graphics/SVG/1.1/DTD/svg11.dtd">
<svg version="1.1" xmlns="http://www.w3.org/2000/svg" xmlns:xlink="http://www.w3.org/1999/xlink" viewBox="0 0 1000 1000" >
<metadata> Svg Vector Icons : http://www.onlinewebfonts.com/icon </metadata>
<g><path  d="M949.7,541.5H358.6l124.3,124.3c16.2,16.2,16.2,42.5,0,58.7c-16.2,16.2-42.4,16.2-58.6,0L228.9,529c-16.2-16.2-16.2-42.4,0-58.6l195.4-195.5c16.2-16.2,42.4-16.2,58.6,0c16.2,16.2,16.2,42.5,0,58.7l-125,125h591.8c23.5,0,40.3,17.9,40.3,41.4C990,523.4,973.3,541.5,949.7,541.5z M797.7,320.3c-18,0-32.9-11.6-38.7-27.6h-2.8V182.1c0-30.5-24.8-55.3-55.3-55.3H148.2c-30.5,0-55.3,24.8-55.3,55.3v635.7c0,30.5,24.8,55.3,55.3,55.3H701c30.5,0,55.3-24.7,55.3-55.3V707.3h2.8c5.7-16,20.7-27.7,38.7-27.7c18,0,32.9,11.6,38.7,27.7h2.8v138.2c0,61.1-49.5,110.6-110.6,110.6H120.6C59.5,956.1,10,906.6,10,845.5v-691C10,93.4,59.5,43.9,120.6,43.9h608.1c61.1,0,110.6,49.5,110.6,110.6v138.2h-2.8C830.7,308.7,815.7,320.3,797.7,320.3z"/></g>
</svg>